<?xml version="1.0" standalone="no"?>
<!DOCTYPE svg PUBLIC "-//W3C//DTD SVG 20010904//EN"
 "http://www.w3.org/TR/2001/REC-SVG-20010904/DTD/svg10.dtd">
<svg version="1.0" xmlns="http://www.w3.org/2000/svg"
 width="1000.000000pt" height="1000.000000pt" viewBox="0 0 1000.000000 1000.000000"
 preserveAspectRatio="xMidYMid meet">
<metadata>
Created by potrace 1.11, written by Peter Selinger 2001-2013
</metadata>
<g transform="translate(0.000000,1000.000000) scale(0.100000,-0.100000)"
fill="#000000" stroke="none">
<path d="M4617 9993 c-3 -3 -34 -6 -69 -8 -35 -2 -63 -4 -63 -4 0 -1 -22 -4
-49 -6 -28 -2 -70 -7 -95 -10 -26 -4 -57 -8 -71 -10 -34 -4 -190 -32 -275 -50
-38 -9 -83 -18 -100 -21 -16 -3 -61 -15 -100 -25 -38 -11 -77 -22 -85 -24 -95
-21 -390 -119 -485 -160 -16 -8 -73 -32 -125 -53 -187 -79 -396 -180 -522
-253 -36 -22 -69 -39 -71 -39 -11 0 -391 -243 -407 -260 -3 -3 -30 -23 -60
-45 -30 -22 -86 -64 -125 -95 -38 -30 -74 -58 -80 -63 -5 -4 -22 -17 -36 -30
-14 -12 -52 -44 -85 -72 -119 -100 -554 -545 -554 -566 0 -4 -3 -9 -7 -11 -9
-3 -90 -104 -169 -208 -56 -73 -212 -307 -240 -360 -11 -19 -22 -37 -25 -40
-17 -15 -250 -454 -254 -480 -1 -3 -18 -41 -38 -84 -20 -43 -37 -82 -37 -87 0
-4 -6 -20 -14 -36 -32 -63 -82 -198 -142 -383 -46 -140 -104 -354 -119 -442
-3 -17 -8 -35 -10 -38 -3 -4 -7 -25 -11 -46 -3 -22 -9 -55 -14 -74 -8 -33 -32
-182 -45 -280 -3 -25 -8 -63 -11 -84 -3 -22 -7 -65 -9 -97 -2 -32 -5 -62 -8
-66 -8 -12 -1 -800 7 -853 4 -25 7 -52 8 -60 0 -14 12 -109 24 -200 15 -118
63 -356 95 -474 6 -22 13 -49 15 -60 6 -23 5 -22 23 -86 28 -102 130 -398 160
-465 5 -11 16 -36 24 -55 130 -306 257 -549 414 -798 92 -145 153 -235 165
-240 5 -2 8 -8 8 -13 0 -8 104 -148 145 -196 5 -7 15 -18 20 -25 26 -33 73
-89 128 -153 75 -86 410 -422 492 -492 132 -115 157 -134 305 -243 74 -55 140
-104 147 -110 7 -5 15 -10 18 -10 3 0 27 -15 54 -34 139 -98 510 -297 727
-390 33 -14 78 -33 100 -43 21 -9 41 -17 44 -18 6 -2 57 -22 80 -32 8 -3 17
-7 20 -8 3 -1 19 -7 35 -14 83 -35 375 -128 485 -156 8 -2 60 -15 115 -29 55
-14 114 -27 130 -30 28 -5 44 -9 105 -21 48 -9 85 -15 126 -21 23 -2 53 -7 65
-9 13 -3 47 -8 74 -11 28 -3 61 -7 75 -9 196 -28 981 -28 1130 -1 14 3 48 8
75 11 80 10 108 13 140 19 168 29 213 37 230 41 239 56 262 61 305 75 19 6 45
13 56 16 59 12 377 122 416 144 10 6 22 10 28 10 5 0 33 11 62 24 116 52 183
81 188 81 23 2 371 185 512 270 46 28 87 52 93 54 5 2 14 8 20 13 5 5 40 29
77 52 76 48 69 43 233 165 282 210 528 437 755 700 30 35 60 69 65 75 22 24
163 203 186 236 13 19 27 37 30 40 3 3 30 41 60 85 30 44 56 82 59 85 10 8
138 214 160 255 6 11 22 40 36 65 82 143 277 551 289 604 1 6 6 20 10 31 36
90 93 247 105 290 5 17 18 62 30 100 23 77 68 245 76 285 10 54 26 126 31 140
3 8 7 24 8 35 1 11 11 76 23 145 12 69 24 148 27 175 4 28 8 66 11 85 5 42 13
132 21 260 13 191 6 654 -12 790 -3 19 -7 58 -9 85 -5 46 -21 164 -31 225 -26
159 -37 220 -45 250 -5 19 -11 46 -14 60 -33 186 -144 539 -253 805 -60 146
-249 526 -265 533 -5 2 -8 8 -8 13 0 20 -257 426 -314 496 -8 10 -32 41 -52
68 -100 133 -154 200 -239 295 -177 198 -432 446 -583 565 -14 11 -51 41 -83
68 -32 26 -63 47 -68 47 -6 0 -14 6 -18 13 -9 14 -31 29 -182 131 -111 75
-224 146 -301 188 -25 14 -63 36 -85 48 -67 39 -313 160 -324 160 -6 0 -11 5
-11 10 0 6 -6 10 -14 10 -8 0 -45 14 -82 31 -129 58 -149 67 -286 118 -75 28
-143 51 -150 51 -8 0 -18 4 -24 8 -13 11 -58 25 -209 67 -123 34 -141 39 -190
49 -11 2 -38 9 -60 15 -51 13 -170 36 -265 51 -41 7 -84 14 -95 16 -11 2 -42
6 -70 9 -27 2 -68 7 -90 10 -22 3 -62 8 -90 11 -65 8 -842 14 -848 7z m2389
-1679 c109 -57 151 -103 169 -184 3 -14 13 -35 23 -48 17 -22 19 -22 72 -9 61
16 99 14 180 -10 167 -48 314 -109 368 -151 33 -27 109 -106 130 -137 4 -5 48
-62 98 -125 50 -63 108 -139 128 -168 35 -51 47 -70 97 -159 11 -21 25 -42 30
-47 5 -6 9 -43 9 -82 0 -40 6 -101 14 -136 45 -200 52 -461 16 -623 -42 -189
-150 -343 -286 -407 -35 -16 -69 -31 -76 -32 -7 -1 -19 -5 -25 -9 -7 -5 -18
-5 -23 -2 -6 4 -16 2 -23 -3 -55 -44 -598 -76 -671 -40 -10 6 -32 26 -49 46
-18 21 -53 58 -78 84 -26 26 -64 68 -85 95 -22 26 -47 57 -58 68 -41 45 -77
163 -80 267 -2 64 17 173 34 193 5 6 11 21 13 32 5 34 75 120 109 133 31 12
98 75 98 92 0 4 24 19 53 33 87 41 103 90 83 250 -4 33 -9 68 -10 78 -4 33
-51 102 -107 158 -141 140 -386 261 -614 304 -131 24 -336 25 -386 1 -19 -8
-65 -25 -104 -36 -190 -57 -390 -144 -525 -227 -266 -166 -557 -444 -754 -722
-115 -163 -299 -522 -288 -563 1 -5 -3 -8 -10 -8 -6 0 -9 -3 -5 -6 3 -3 1 -18
-5 -33 -8 -21 -32 -103 -53 -181 -40 -155 -57 -294 -59 -481 l-1 -136 -37 -36
c-42 -41 -76 -109 -113 -231 -44 -143 -48 -178 -49 -400 -1 -108 4 -207 12
-250 22 -120 24 -146 25 -286 0 -129 -8 -265 -18 -292 -3 -7 -7 -38 -10 -68
-3 -30 -8 -73 -10 -95 -18 -161 -21 -244 -12 -298 22 -123 29 -514 12 -647
-11 -87 -10 -184 3 -217 5 -16 15 -49 22 -74 11 -42 20 -52 128 -134 99 -75
121 -88 151 -87 69 3 276 63 406 118 215 92 272 107 373 102 104 -6 179 -31
271 -90 92 -60 191 -162 191 -196 0 -15 0 -48 0 -73 2 -106 -35 -195 -114
-274 -41 -42 -65 -57 -109 -70 -31 -9 -70 -23 -86 -31 -16 -8 -96 -28 -177
-44 -82 -16 -166 -34 -186 -40 -20 -6 -40 -10 -45 -9 -4 2 -30 -1 -58 -5 -97
-14 -111 -15 -245 -16 -74 -1 -164 4 -200 10 -36 6 -78 13 -93 16 -48 8 -145
32 -154 37 -5 3 -20 8 -34 11 -123 23 -203 36 -249 41 -91 11 -384 14 -402 4
-9 -5 -150 -11 -314 -15 -165 -3 -302 -8 -306 -10 -4 -3 -31 -7 -60 -10 -29
-3 -64 -7 -78 -10 -14 -4 -111 -8 -216 -11 l-192 -5 -37 25 c-65 44 -133 116
-145 153 -16 47 -7 136 16 167 10 13 36 36 56 51 22 16 38 36 38 47 0 14 13
25 43 38 47 20 144 47 197 56 165 27 400 126 579 244 90 60 251 210 316 295
131 172 231 338 272 451 6 20 64 240 68 265 3 14 7 36 10 49 31 155 41 556 21
856 -4 66 -10 145 -12 175 -2 30 -6 179 -10 330 l-6 275 -28 28 c-16 15 -34
27 -40 27 -15 0 -111 98 -146 150 -59 86 -107 193 -127 280 -11 53 -15 473 -8
929 2 107 -1 167 -8 174 -6 6 -11 18 -11 27 0 55 -233 284 -430 422 -154 108
-344 179 -485 180 -44 1 -91 -1 -105 -4 -137 -30 -246 -35 -303 -13 -35 14
-167 331 -167 401 0 54 133 209 207 240 17 8 34 18 37 23 3 5 53 9 110 10 58
1 115 4 127 6 35 7 300 7 329 1 69 -16 87 -19 105 -21 11 -2 38 -8 60 -13 166
-44 348 -57 458 -32 52 11 269 10 357 -2 36 -5 84 -10 108 -13 48 -4 80 -25
162 -106 67 -65 93 -128 96 -230 0 -36 3 -70 6 -75 5 -9 3 -569 -2 -589 -7
-29 0 -33 38 -24 83 22 127 40 252 105 14 7 41 16 60 19 36 6 66 34 165 149
28 32 78 99 112 150 34 50 67 96 73 103 5 7 10 17 10 22 0 5 22 31 48 58 70
70 149 90 237 58 56 -21 73 -19 137 14 31 16 83 43 115 60 32 17 116 52 187
77 118 43 129 49 142 80 17 41 40 55 72 43 14 -6 38 -6 60 0 21 5 59 12 85 16
80 11 83 12 194 68 180 90 285 153 363 217 63 51 137 76 240 81 25 1 53 9 62
17 28 24 119 51 169 52 31 0 62 -9 95 -26z"/>
</g>
</svg>
